<svg width="80" height="80" viewBox="0 0 80 80" fill="none" xmlns="http://www.w3.org/2000/svg">
<path d="M25.4664 39.456V39.4152C25.4664 36.2752 27.9944 33.7264 31.4 33.7264C34.764 33.7264 37.292 36.2144 37.292 39.3744V39.4152C37.292 42.5552 34.764 45.104 31.3592 45.104C27.9944 45.104 25.4664 42.616 25.4664 39.456ZM34.2336 39.456V39.4152C34.2336 37.8048 33.072 36.4 31.36 36.4C29.5856 36.4 28.5256 37.7456 28.5256 39.3768V39.4176C28.5256 41.028 29.688 42.4352 31.4008 42.4352C33.1736 42.4328 34.2336 41.0872 34.2336 39.456Z" fill="#2A40DB"/>
<path d="M43.0304 45.0633C42.276 45.0633 41.644 44.6353 41.3184 43.6769L38.6472 35.9697C38.5624 35.7267 38.5142 35.4724 38.504 35.2153C38.504 34.5017 39.0752 33.8081 39.9928 33.8081C40.788 33.8081 41.2776 34.2977 41.5016 35.0081L43.1736 40.5601L44.8864 35.0345C45.1104 34.3009 45.6816 33.7913 46.4768 33.7913H46.66C47.4552 33.7913 48.0264 34.3009 48.2504 35.0345L49.9832 40.5809L51.696 34.9937C51.92 34.3417 52.3688 33.8113 53.1848 33.8113C54.0648 33.8113 54.632 34.4433 54.632 35.2385C54.6347 35.4534 54.6004 35.6672 54.5304 35.8705L51.7776 43.6801C51.4512 44.6401 50.8176 45.0665 50.0648 45.0665H49.9632C49.2088 45.0665 48.5968 44.6385 48.2912 43.7409L46.56 38.2329L44.8064 43.7377C44.5 44.6353 43.8888 45.0633 43.1344 45.0633H43.0304Z" fill="#2A40DB"/>
<path d="M61.524 45.104C58.244 45.104 55.8152 42.8 55.8152 39.456V39.4152C55.8152 36.2952 58.0376 33.7264 61.2176 33.7264C64.888 33.7264 66.4784 36.7032 66.4784 38.9872C66.4784 39.884 65.8464 40.4752 65.0304 40.4752H58.8936C59.1992 41.8824 60.1784 42.616 61.5648 42.616C62.3603 42.6263 63.136 42.3678 63.7664 41.8824C63.9812 41.7145 64.2483 41.6278 64.5208 41.6376C65.2344 41.6376 65.7208 42.1472 65.7208 42.8608C65.72 43.0337 65.6833 43.2045 65.6131 43.3625C65.5429 43.5204 65.4406 43.6621 65.3128 43.7784C64.3576 44.5944 63.1344 45.104 61.524 45.104ZM63.524 38.5384C63.3408 37.152 62.5256 36.2144 61.22 36.2144C59.9144 36.2144 59.1 37.132 58.8552 38.5384H63.524Z" fill="#2A40DB"/>
<path d="M25.132 50.4383C25.3025 50.4309 25.4722 50.467 25.6249 50.5433C25.7776 50.6196 25.9083 50.7335 26.0048 50.8743C27.5248 52.8983 29.076 53.7887 31.3792 53.7887C33.7176 53.7887 35.2008 52.8983 36.7544 50.8743C36.8507 50.7335 36.9813 50.6196 37.1339 50.5433C37.2864 50.467 37.456 50.4309 37.6264 50.4383C38.1672 50.4383 38.7088 50.9439 38.7088 51.4503C38.7127 51.6678 38.6647 51.8831 38.5688 52.0783C36.824 54.9584 34.5728 56.4232 31.3792 56.4232C28.1856 56.4232 25.9344 54.9576 24.1896 52.0783C24.0944 51.8829 24.0467 51.6677 24.0504 51.4503C24.0504 50.9439 24.5912 50.4383 25.132 50.4383Z" fill="#2A40DB"/>
<path d="M13.5672 35.2344C13.5659 35.0752 13.5963 34.9174 13.6567 34.77C13.717 34.6227 13.806 34.4888 13.9186 34.3763C14.0312 34.2637 14.1651 34.1746 14.3124 34.1143C14.4597 34.054 14.6176 34.0235 14.7768 34.0248H17.8552C21.3112 34.0248 23.6952 36.3968 23.6952 39.4912V39.52C23.6952 42.6144 21.308 45.0176 17.8552 45.0176H14.7768C14.6176 45.0189 14.4597 44.9885 14.3124 44.9282C14.1651 44.8678 14.0312 44.7788 13.9186 44.6662C13.806 44.5536 13.717 44.4198 13.6567 44.2724C13.5963 44.1251 13.5659 43.9672 13.5672 43.808V35.2344ZM17.8552 42.8344C19.8184 42.8344 21.1696 41.4992 21.1696 39.5544V39.52C21.1696 37.572 19.8184 36.2056 17.8552 36.2056H15.9864V42.8344H17.8552Z" fill="#2A40DB"/>
</svg>
