<svg width="90" height="90" viewBox="0 0 90 90" fill="none" xmlns="http://www.w3.org/2000/svg">
<path d="M28.6497 44.388V44.3421C28.6497 40.8096 31.4937 37.9422 35.325 37.9422C39.1095 37.9422 41.9535 40.7412 41.9535 44.2962V44.3421C41.9535 47.8746 39.1095 50.742 35.2791 50.742C31.4937 50.742 28.6497 47.943 28.6497 44.388ZM38.5128 44.388V44.3421C38.5128 42.5304 37.206 40.95 35.28 40.95C33.2838 40.95 32.0913 42.4638 32.0913 44.2989V44.3448C32.0913 46.1565 33.399 47.7396 35.3259 47.7396C37.3203 47.7369 38.5128 46.2231 38.5128 44.388Z" fill="#2A40DB"/>
<path d="M48.4092 50.6961C47.5605 50.6961 46.8495 50.2146 46.4832 49.1364L43.4781 40.4658C43.3828 40.1924 43.3285 39.9064 43.317 39.6171C43.317 38.8143 43.9596 38.034 44.9919 38.034C45.8865 38.034 46.4373 38.5848 46.6893 39.384L48.5703 45.63L50.4972 39.4137C50.7492 38.5884 51.3918 38.0151 52.2864 38.0151H52.4925C53.3871 38.0151 54.0297 38.5884 54.2817 39.4137L56.2311 45.6534L58.158 39.3678C58.41 38.6343 58.9149 38.0376 59.8329 38.0376C60.8229 38.0376 61.461 38.7486 61.461 39.6432C61.4641 39.885 61.4254 40.1255 61.3467 40.3542L58.2498 49.14C57.8826 50.22 57.1698 50.6997 56.3229 50.6997H56.2086C55.3599 50.6997 54.6714 50.2182 54.3276 49.2084L52.38 43.0119L50.4072 49.2048C50.0625 50.2146 49.3749 50.6961 48.5262 50.6961H48.4092Z" fill="#2A40DB"/>
<path d="M69.2145 50.742C65.5245 50.742 62.7921 48.15 62.7921 44.388V44.3421C62.7921 40.8321 65.2923 37.9422 68.8698 37.9422C72.999 37.9422 74.7882 41.2911 74.7882 43.8606C74.7882 44.8695 74.0772 45.5346 73.1592 45.5346H66.2553C66.5991 47.1177 67.7007 47.943 69.2604 47.943C70.1554 47.9546 71.0281 47.6638 71.7372 47.1177C71.9788 46.9288 72.2794 46.8312 72.5859 46.8423C73.3887 46.8423 73.9359 47.4156 73.9359 48.2184C73.935 48.4129 73.8937 48.605 73.8147 48.7827C73.7357 48.9604 73.6207 49.1198 73.4769 49.2507C72.4023 50.1687 71.0262 50.742 69.2145 50.742ZM71.4645 43.3557C71.2584 41.796 70.3413 40.7412 68.8725 40.7412C67.4037 40.7412 66.4875 41.7735 66.2121 43.3557H71.4645Z" fill="#2A40DB"/>
<path d="M28.2735 56.7431C28.4653 56.7347 28.6562 56.7753 28.828 56.8612C28.9997 56.947 29.1468 57.0752 29.2554 57.2336C30.9654 59.5106 32.7105 60.5123 35.3016 60.5123C37.9323 60.5123 39.6009 59.5106 41.3487 57.2336C41.457 57.0752 41.6039 56.947 41.7756 56.8612C41.9472 56.7753 42.1379 56.7347 42.3297 56.7431C42.9381 56.7431 43.5474 57.3119 43.5474 57.8816C43.5518 58.1263 43.4978 58.3684 43.3899 58.5881C41.427 61.8281 38.8944 63.476 35.3016 63.476C31.7088 63.476 29.1762 61.8272 27.2133 58.5881C27.1062 58.3682 27.0526 58.1261 27.0567 57.8816C27.0567 57.3119 27.6651 56.7431 28.2735 56.7431Z" fill="#2A40DB"/>
<path d="M15.2631 39.6387C15.2617 39.4596 15.2959 39.282 15.3638 39.1162C15.4316 38.9505 15.5318 38.7999 15.6585 38.6732C15.7851 38.5466 15.9357 38.4464 16.1015 38.3785C16.2672 38.3107 16.4448 38.2764 16.6239 38.2779H20.0871C23.9751 38.2779 26.6571 40.9464 26.6571 44.4276V44.46C26.6571 47.9412 23.9715 50.6448 20.0871 50.6448H16.6239C16.4448 50.6462 16.2672 50.612 16.1015 50.5441C15.9357 50.4763 15.7851 50.3761 15.6585 50.2494C15.5318 50.1228 15.4316 49.9722 15.3638 49.8064C15.2959 49.6407 15.2617 49.4631 15.2631 49.284V39.6387ZM20.0871 48.1887C22.2957 48.1887 23.8158 46.6866 23.8158 44.4987V44.46C23.8158 42.2685 22.2957 40.7313 20.0871 40.7313H17.9847V48.1887H20.0871Z" fill="#2A40DB"/>
</svg>
