<svg width="71" height="71" viewBox="0 0 71 71" fill="none" xmlns="http://www.w3.org/2000/svg">
<path d="M38.6062 28.9621L29.5833 22.1875V48.8125L38.6062 42.0379L47.3333 35.5L38.6062 28.9621ZM38.6062 28.9621L29.5833 22.1875V48.8125L38.6062 42.0379L47.3333 35.5L38.6062 28.9621ZM38.6062 28.9621L29.5833 22.1875V48.8125L38.6062 42.0379L47.3333 35.5L38.6062 28.9621ZM32.5417 12.0404V6.06458C26.5954 6.65624 21.1817 9.02291 16.8033 12.6025L21.0042 16.8329C24.2879 14.2887 28.2225 12.5729 32.5417 12.0404ZM16.8329 21.0042L12.6025 16.8033C9.02291 21.1817 6.65624 26.5954 6.06458 32.5417H12.0404C12.5729 28.2225 14.2887 24.2879 16.8329 21.0042ZM12.0404 38.4583H6.06458C6.65624 44.4046 9.02291 49.8183 12.6025 54.1967L16.8329 49.9662C14.2887 46.7121 12.5729 42.7775 12.0404 38.4583ZM16.8033 58.3975C21.1817 61.9771 26.625 64.3437 32.5417 64.9354V58.9596C28.2225 58.4271 24.2879 56.7112 21.0042 54.1671L16.8033 58.3975ZM65.0833 35.5C65.0833 50.765 53.4867 63.3675 38.6062 64.9354V58.9596C50.2029 57.4212 59.1667 47.4812 59.1667 35.5C59.1667 23.5187 50.2029 13.5787 38.6062 12.0404V6.06458C53.4867 7.63249 65.0833 20.235 65.0833 35.5Z" fill="#2A40DB"/>
</svg>
